<?xml version="1.0" encoding="UTF-8" standalone="no"?>
<svg
   xmlns:dc="http://purl.org/dc/elements/1.1/"
   xmlns:cc="http://creativecommons.org/ns#"
   xmlns:rdf="http://www.w3.org/1999/02/22-rdf-syntax-ns#"
   xmlns:svg="http://www.w3.org/2000/svg"
   xmlns="http://www.w3.org/2000/svg"
   x="0px"
   y="0px"
   viewBox="0 0 599.90668 173.64"
   style="enable-background:new 0 0 599.90668 173.64;"
   xml:space="preserve"
   preserveAspectRatio="xMinYMin meet"
   id="svg2"
   version="1.1"><metadata
     id="metadata8"><rdf:RDF><cc:Work
         rdf:about=""><dc:format>image/svg+xml</dc:format><dc:type
           rdf:resource="http://purl.org/dc/dcmitype/StillImage" /></cc:Work></rdf:RDF></metadata><defs
     id="defs6" /><g
     transform="matrix(1.3333333,0,0,-1.3333333,0,173.64)"
     id="g10"><g
       transform="scale(0.1)"
       id="g12"><path
         id="path14"
         style="fill:#3a8cc2;fill-opacity:1;fill-rule:nonzero;stroke:none"
         d="M 2253.28,349.148 H 0 V 1302.31 H 2253.28 V 349.148" /><path
         id="path16"
         style="fill:#ffffff;fill-opacity:1;fill-rule:nonzero;stroke:none"
         d="M 740.027,904.441 570.336,561.473 h -83.5 L 318.039,904.441 V 509.395 H 177.977 V 1136.98 H 367.426 L 529.035,792.211 691.543,1136.98 H 880.09 V 509.395 H 740.027 v 395.046" /><path
         id="path18"
         style="fill:#ffffff;fill-opacity:1;fill-rule:nonzero;stroke:none"
         d="m 1133.56,613.102 69.07,71.808 c 31.78,33.074 53.96,60.75 65.92,82.266 12.24,22.051 18.45,45.437 18.45,69.531 0,44.121 -15.56,79.559 -46.26,105.344 -30.36,25.465 -66.05,38.379 -106.09,38.379 -39.76,0 -73.09,-8.782 -99.08,-26.094 -25.59,-17.063 -49.371,-42.461 -70.668,-75.5 l -3.953,-6.121 92.001,-54.465 3.64,5.781 c 23.65,37.664 48.52,56.77 73.91,56.77 13.48,0 24.17,-4.219 32.68,-12.903 8.54,-8.742 12.69,-19.367 12.69,-32.468 0,-13.352 -5.26,-27.578 -15.64,-42.278 -11.02,-15.586 -29.8,-36.894 -55.83,-63.339 L 971.449,593.609 v -83.972 h 328.961 v 103.465 h -166.85" /><path
         id="path20"
         style="fill:#ffffff;fill-opacity:1;fill-rule:nonzero;stroke:none"
         d="M 1945.78,904.441 1776.09,561.473 h -83.5 l -168.8,342.968 V 509.395 h -140.06 v 627.585 h 189.45 l 161.61,-344.769 162.5,344.769 h 188.55 V 509.395 h -140.06 v 395.046" /><path
         id="path22"
         style="fill:#203463;fill-opacity:1;fill-rule:nonzero;stroke:none"
         d="M 2600.07,1136.99 H 2459.99 V 509.395 h 407.63 v 124.8 h -267.55 v 502.795" /><path
         id="path24"
         style="fill:#203463;fill-opacity:1;fill-rule:nonzero;stroke:none"
         d="m 3020.43,687.828 h 196.71 v 97.617 h -196.71 v 76.477 h 218.7 v 101.387 h -330.77 v -453.34 h 337.7 V 610.73 h -225.63 v 77.098" /><path
         id="path26"
         style="fill:#203463;fill-opacity:1;fill-rule:nonzero;stroke:none"
         d="m 3701.17,580.184 1.79,1.992 V 747.73 H 3590.27 V 624.195 c -20.89,-11.023 -47.05,-16.609 -77.84,-16.609 -32.29,0 -59.33,11.543 -82.67,35.305 -23.06,23.445 -34.76,55.3 -34.76,94.695 0,39.336 12.21,71.387 36.27,95.266 24.07,23.875 54.12,35.984 89.33,35.984 18.3,0 35.52,-3.113 51.17,-9.27 15.7,-6.16 33.31,-17.683 52.32,-34.246 l 5.9,-5.156 58.92,85.066 -4.63,4.133 c -47.62,42.473 -104.49,64.004 -169.02,64.004 -64.65,0 -120.65,-22.668 -166.43,-67.363 -45.81,-44.727 -69.03,-101.289 -69.03,-168.106 0,-66.816 22.8,-122.949 67.77,-166.855 44.94,-43.867 101.25,-66.105 167.37,-66.105 78.81,0 141.47,25.316 186.23,75.246" /><path
         id="path28"
         style="fill:#203463;fill-opacity:1;fill-rule:nonzero;stroke:none"
         d="m 3982.59,705 h -88.65 l 44.57,102.852 z m -96.42,258.309 -195.85,-453.34 h 119.61 l 40.86,94.902 h 174.9 l 40.86,-94.902 h 119.62 l -195.86,453.34 h -104.14" /><path
         id="path30"
         style="fill:#203463;fill-opacity:1;fill-rule:nonzero;stroke:none"
         d="M 4311.97,611.355 V 963.309 H 4199.9 v -453.34 h 299.36 v 101.386 h -187.29" /><path
         id="path32"
         style="fill:#6f7072;fill-opacity:1;fill-rule:nonzero;stroke:none"
         d="M 12.7422,59.7617 V 237.359 H 33.3906 V 78.4688 H 111.746 V 59.7617 H 12.7422" /><path
         id="path34"
         style="fill:#6f7072;fill-opacity:1;fill-rule:nonzero;stroke:none"
         d="m 214.488,178.449 c -10.687,0 -19.211,-3.48 -25.57,-10.437 -6.355,-6.981 -10.102,-16.621 -11.234,-28.922 h 69.605 c 0,12.711 -2.832,22.449 -8.504,29.219 -5.668,6.761 -13.765,10.14 -24.297,10.14 z m 5.473,-121.117 c -19.684,0 -35.211,6 -46.59,17.9766 -11.383,11.9805 -17.07,28.6324 -17.07,49.9294 0,21.461 5.285,38.512 15.855,51.141 10.567,12.641 24.762,18.953 42.578,18.953 16.68,0 29.883,-5.48 39.602,-16.461 9.719,-10.973 14.578,-25.441 14.578,-43.422 v -12.758 h -91.719 c 0.407,-15.632 4.356,-27.4996 11.844,-35.5894 7.492,-8.1016 18.039,-12.1524 31.649,-12.1524 14.335,0 28.503,3 42.519,8.9805 V 65.9609 c -7.129,-3.082 -13.871,-5.289 -20.23,-6.6289 -6.36,-1.3203 -14.028,-2 -23.016,-2" /><path
         id="path36"
         style="fill:#6f7072;fill-opacity:1;fill-rule:nonzero;stroke:none"
         d="m 341.898,150.262 c 0,-9.301 2.629,-16.364 7.895,-21.133 5.266,-4.777 12.594,-7.168 21.988,-7.168 19.684,0 29.52,9.551 29.52,28.668 0,20 -9.961,30 -29.883,30 -9.477,0 -16.766,-2.547 -21.867,-7.641 -5.106,-5.109 -7.653,-12.679 -7.653,-22.726 z M 330.965,37.4102 c 0,-7.211 3.039,-12.6797 9.109,-16.3985 6.078,-3.7304 14.781,-5.582 26.121,-5.582 16.922,0 29.457,2.5312 37.598,7.5898 8.141,5.0508 12.207,11.9219 12.207,20.5899 0,7.2109 -2.227,12.2109 -6.68,15 -4.457,2.789 -12.836,4.1914 -25.148,4.1914 h -24.176 c -9.152,0 -16.277,-2.1914 -21.379,-6.5625 -5.101,-4.3789 -7.652,-10.6485 -7.652,-18.8281 z M 437.137,192.91 V 180.148 L 412.48,177.23 c 2.262,-2.832 4.29,-6.539 6.075,-11.109 1.773,-4.582 2.668,-9.75 2.668,-15.492 0,-13.039 -4.453,-23.438 -13.364,-31.219 -8.906,-7.769 -21.136,-11.66 -36.683,-11.66 -3.973,0 -7.696,0.32 -11.18,0.969 -8.582,-4.528 -12.875,-10.2502 -12.875,-17.1292 0,-3.6406 1.5,-6.3398 4.492,-8.0781 3,-1.7422 8.141,-2.6133 15.43,-2.6133 h 23.566 c 14.414,0 25.493,-3.039 33.227,-9.1093 7.734,-6.0703 11.602,-14.8985 11.602,-26.4805 0,-14.75 -5.915,-25.9766 -17.739,-33.707 C 405.879,3.87109 388.625,0 365.949,0 c -17.41,0 -30.836,3.23828 -40.265,9.71094 -9.442,6.48826 -14.157,15.64066 -14.157,27.46096 0,8.0976 2.59,15.0976 7.778,21.0078 5.179,5.9219 12.472,9.9219 21.867,12.0312 -3.406,1.5391 -6.262,3.9297 -8.567,7.168 -2.308,3.2305 -3.46,7 -3.46,11.3008 0,4.8516 1.293,9.1094 3.886,12.7503 2.586,3.652 6.68,7.172 12.27,10.57 -6.887,2.832 -12.496,7.66 -16.824,14.449 -4.336,6.813 -6.5,14.582 -6.5,23.332 0,14.571 4.375,25.809 13.121,33.707 8.742,7.891 21.136,11.844 37.172,11.844 6.96,0 13.242,-0.812 18.828,-2.422 h 46.039" /><path
         id="path38"
         style="fill:#6f7072;fill-opacity:1;fill-rule:nonzero;stroke:none"
         d="m 525.672,73.9688 c 12.555,0 22.418,3.4531 29.586,10.332 7.164,6.8906 10.746,16.5312 10.746,28.9102 v 12.027 l -20.164,-0.847 c -16.035,-0.559 -27.594,-3.051 -34.684,-7.469 -7.086,-4.41 -10.625,-11.281 -10.625,-20.59 0,-7.2929 2.203,-12.8437 6.617,-16.6406 4.415,-3.8125 10.59,-5.7226 18.524,-5.7226 z m 45.558,-14.2071 -4.011,18.9571 h -0.969 c -6.641,-8.3477 -13.262,-14 -19.863,-16.9493 -6.606,-2.9492 -14.84,-4.4375 -24.723,-4.4375 -13.199,0 -23.547,3.4063 -31.035,10.2071 -7.492,6.8007 -11.234,16.4804 -11.234,29.0312 0,26.8907 21.496,40.9807 64.5,42.2817 l 22.597,0.73 v 8.258 c 0,10.441 -2.246,18.148 -6.742,23.129 -4.492,4.992 -11.684,7.48 -21.562,7.48 -11.098,0 -23.649,-3.398 -37.657,-10.211 l -6.195,15.434 c 6.555,3.558 13.742,6.359 21.562,8.387 7.813,2.023 15.649,3.043 23.504,3.043 15.871,0 27.637,-3.532 35.289,-10.582 7.657,-7.04 11.481,-18.34 11.481,-33.891 V 59.7617 H 571.23" /><path
         id="path40"
         style="fill:#6f7072;fill-opacity:1;fill-rule:nonzero;stroke:none"
         d="M 672.762,59.7617 H 652.598 V 248.789 h 20.164 V 59.7617" /><path
         id="path42"
         style="fill:#6f7072;fill-opacity:1;fill-rule:nonzero;stroke:none"
         d="m 933.16,107.02 c 0,-15.6411 -5.668,-27.8208 -17.004,-36.5591 -11.343,-8.75 -26.73,-13.1289 -46.164,-13.1289 -21.058,0 -37.254,2.7188 -48.594,8.1485 v 19.9179 c 7.293,-3.0898 15.227,-5.5078 23.809,-7.2968 8.586,-1.7696 17.09,-2.6602 25.516,-2.6602 13.761,0 24.129,2.5977 31.097,7.8281 6.961,5.2188 10.45,12.4922 10.45,21.8125 0,6.148 -1.239,11.188 -3.707,15.117 -2.469,3.93 -6.602,7.551 -12.391,10.871 -5.793,3.321 -14.602,7.09 -26.422,11.301 -16.523,5.91 -28.324,12.91 -35.41,21.02 -7.09,8.089 -10.629,18.66 -10.629,31.711 0,13.679 5.141,24.57 15.422,32.668 10.289,8.101 23.894,12.152 40.82,12.152 17.652,0 33.895,-3.242 48.711,-9.723 l -6.434,-17.98 c -14.664,6.16 -28.917,9.23 -42.765,9.23 -10.934,0 -19.477,-2.347 -25.629,-7.051 -6.156,-4.687 -9.234,-11.207 -9.234,-19.546 0,-6.161 1.132,-11.204 3.406,-15.133 2.265,-3.918 6.086,-7.52 11.476,-10.809 5.387,-3.281 13.625,-6.898 24.723,-10.871 18.621,-6.648 31.441,-13.758 38.445,-21.379 7.004,-7.609 10.508,-17.488 10.508,-29.64" /><path
         id="path44"
         style="fill:#6f7072;fill-opacity:1;fill-rule:nonzero;stroke:none"
         d="m 1042.1,178.449 c -10.69,0 -19.21,-3.48 -25.57,-10.437 -6.36,-6.981 -10.1,-16.621 -11.23,-28.922 h 69.6 c 0,12.711 -2.83,22.449 -8.5,29.219 -5.67,6.761 -13.77,10.14 -24.3,10.14 z m 5.47,-121.117 c -19.68,0 -35.21,6 -46.59,17.9766 -11.378,11.9805 -17.066,28.6324 -17.066,49.9294 0,21.461 5.281,38.512 15.856,51.141 10.57,12.641 24.76,18.953 42.58,18.953 16.68,0 29.88,-5.48 39.6,-16.461 9.72,-10.973 14.58,-25.441 14.58,-43.422 v -12.758 h -91.72 c 0.4,-15.632 4.35,-27.4996 11.84,-35.5894 7.49,-8.1016 18.04,-12.1524 31.65,-12.1524 14.33,0 28.5,3 42.52,8.9805 V 65.9609 c -7.13,-3.082 -13.87,-5.289 -20.23,-6.6289 -6.36,-1.3203 -14.03,-2 -23.02,-2" /><path
         id="path46"
         style="fill:#6f7072;fill-opacity:1;fill-rule:nonzero;stroke:none"
         d="m 1216.53,195.332 c 5.91,0 11.21,-0.48 15.91,-1.461 l -2.79,-18.711 c -5.51,1.219 -10.37,1.828 -14.58,1.828 -10.77,0 -19.98,-4.367 -27.64,-13.117 -7.65,-8.75 -11.47,-19.633 -11.47,-32.68 V 59.7617 h -20.17 V 192.91 h 16.64 l 2.31,-24.672 h 0.97 c 4.94,8.672 10.89,15.352 17.86,20.051 6.96,4.699 14.62,7.043 22.96,7.043" /><path
         id="path48"
         style="fill:#6f7072;fill-opacity:1;fill-rule:nonzero;stroke:none"
         d="M 1311.38,59.7617 1260.84,192.91 h 21.62 l 28.68,-78.969 c 6.48,-18.4605 10.28,-30.4527 11.41,-35.9527 h 0.98 c 0.89,4.2812 3.7,13.1836 8.44,26.6597 4.74,13.481 15.37,42.903 31.89,88.262 h 21.62 L 1334.94,59.7617 h -23.56" /><path
         id="path50"
         style="fill:#6f7072;fill-opacity:1;fill-rule:nonzero;stroke:none"
         d="m 1451.91,59.7617 h -20.17 V 192.91 h 20.17 z M 1430.04,228.98 c 0,4.622 1.13,8 3.4,10.149 2.27,2.141 5.1,3.223 8.51,3.223 3.23,0 6.03,-1.09 8.38,-3.282 2.34,-2.191 3.52,-5.55 3.52,-10.09 0,-4.531 -1.18,-7.921 -3.52,-10.14 -2.35,-2.231 -5.15,-3.34 -8.38,-3.34 -3.41,0 -6.24,1.109 -8.51,3.34 -2.27,2.219 -3.4,5.609 -3.4,10.14" /><path
         id="path52"
         style="fill:#6f7072;fill-opacity:1;fill-rule:nonzero;stroke:none"
         d="m 1572.75,57.332 c -19.28,0 -34.2,5.9375 -44.76,17.7969 -10.57,11.8594 -15.86,28.6521 -15.86,50.3591 0,22.262 5.37,39.481 16.1,51.633 10.73,12.141 26.02,18.211 45.86,18.211 6.39,0 12.79,-0.684 19.19,-2.062 6.4,-1.379 11.42,-3 15.06,-4.86 l -6.19,-17.129 c -4.46,1.778 -9.31,3.258 -14.58,4.43 -5.26,1.18 -9.92,1.769 -13.97,1.769 -27.05,0 -40.57,-17.261 -40.57,-51.75 0,-16.371 3.3,-28.9214 9.9,-37.6714 6.6,-8.7383 16.37,-13.1094 29.33,-13.1094 11.1,0 22.48,2.3828 34.14,7.1719 V 64.2617 c -8.91,-4.6133 -20.13,-6.9297 -33.65,-6.9297" /><path
         id="path54"
         style="fill:#6f7072;fill-opacity:1;fill-rule:nonzero;stroke:none"
         d="m 1713.64,178.449 c -10.69,0 -19.21,-3.48 -25.57,-10.437 -6.36,-6.981 -10.1,-16.621 -11.24,-28.922 h 69.61 c 0,12.711 -2.83,22.449 -8.5,29.219 -5.67,6.761 -13.77,10.14 -24.3,10.14 z m 5.47,-121.117 c -19.68,0 -35.21,6 -46.59,17.9766 -11.38,11.9805 -17.07,28.6324 -17.07,49.9294 0,21.461 5.29,38.512 15.86,51.141 10.56,12.641 24.76,18.953 42.58,18.953 16.67,0 29.88,-5.48 39.59,-16.461 9.73,-10.973 14.58,-25.441 14.58,-43.422 v -12.758 h -91.71 c 0.4,-15.632 4.35,-27.4996 11.84,-35.5894 7.49,-8.1016 18.04,-12.1524 31.65,-12.1524 14.33,0 28.5,3 42.52,8.9805 V 65.9609 c -7.13,-3.082 -13.88,-5.289 -20.23,-6.6289 -6.36,-1.3203 -14.03,-2 -23.02,-2" /><path
         id="path56"
         style="fill:#6f7072;fill-opacity:1;fill-rule:nonzero;stroke:none"
         d="m 1913.21,96.082 c 0,-12.3828 -4.61,-21.9414 -13.85,-28.6601 -9.23,-6.7305 -22.19,-10.0899 -38.87,-10.0899 -17.65,0 -31.42,2.7891 -41.3,8.3868 v 18.7031 c 6.39,-3.2422 13.25,-5.793 20.59,-7.6406 7.33,-1.8711 14.39,-2.8125 21.19,-2.8125 10.53,0 18.63,1.6796 24.3,5.0507 5.67,3.3594 8.5,8.4805 8.5,15.3594 0,5.1914 -2.24,9.6211 -6.74,13.3011 -4.49,3.691 -13.26,8.039 -26.3,13.07 -12.39,4.609 -21.2,8.641 -26.42,12.082 -5.22,3.449 -9.11,7.348 -11.66,11.727 -2.55,4.371 -3.83,9.589 -3.83,15.66 0,10.863 4.42,19.429 13.24,25.703 8.83,6.277 20.94,9.41 36.33,9.41 14.33,0 28.34,-2.91 42.03,-8.742 l -7.17,-16.41 c -13.36,5.511 -25.47,8.269 -36.32,8.269 -9.56,0 -16.77,-1.5 -21.62,-4.5 -4.86,-2.988 -7.29,-7.129 -7.29,-12.39 0,-3.559 0.91,-6.598 2.73,-9.11 1.82,-2.508 4.76,-4.898 8.81,-7.168 4.05,-2.261 11.82,-5.551 23.32,-9.832 15.8,-5.75 26.46,-11.551 32.01,-17.379 5.55,-5.832 8.32,-13.16 8.32,-21.988" /><path
         id="path58"
         style="fill:#6f7072;fill-opacity:1;fill-rule:nonzero;stroke:none"
         d="m 1992.03,88.6797 1.82,-2.8008 c -2.11,-8.0976 -5.15,-17.5078 -9.11,-28.25 -3.97,-10.7187 -8.1,-20.707 -12.39,-29.9375 h -15.19 c 2.19,8.4297 4.6,18.8281 7.23,31.2188 2.63,12.3984 4.48,22.3203 5.53,29.7695 h 22.11" /><path
         id="path60"
         style="fill:#6f7072;fill-opacity:1;fill-rule:nonzero;stroke:none"
         d="m 2227.89,59.7617 -60.25,157.4493 h -0.98 c 1.14,-12.492 1.71,-27.301 1.71,-44.473 V 59.7617 H 2149.3 V 237.359 h 31.09 l 56.25,-146.4879 h 0.97 l 56.73,146.4879 h 30.85 V 59.7617 h -20.65 V 174.199 c 0,13.11 0.57,27.371 1.7,42.762 h -0.97 L 2244.53,59.7617 h -16.64" /><path
         id="path62"
         style="fill:#6f7072;fill-opacity:1;fill-rule:nonzero;stroke:none"
         d="m 2432.07,73.9688 c 12.55,0 22.42,3.4531 29.58,10.332 7.17,6.8906 10.76,16.5312 10.76,28.9102 v 12.027 l -20.17,-0.847 c -16.04,-0.559 -27.6,-3.051 -34.69,-7.469 -7.09,-4.41 -10.62,-11.281 -10.62,-20.59 0,-7.2929 2.2,-12.8437 6.62,-16.6406 4.41,-3.8125 10.58,-5.7226 18.52,-5.7226 z m 45.56,-14.2071 -4.01,18.9571 h -0.97 c -6.65,-8.3477 -13.27,-14 -19.86,-16.9493 -6.61,-2.9492 -14.85,-4.4375 -24.73,-4.4375 -13.2,0 -23.55,3.4063 -31.04,10.2071 -7.49,6.8007 -11.24,16.4804 -11.24,29.0312 0,26.8907 21.51,40.9807 64.52,42.2817 l 22.58,0.73 v 8.258 c 0,10.441 -2.24,18.148 -6.73,23.129 -4.5,4.992 -11.68,7.48 -21.57,7.48 -11.09,0 -23.65,-3.398 -37.65,-10.211 l -6.2,15.434 c 6.56,3.558 13.75,6.359 21.56,8.387 7.82,2.023 15.65,3.043 23.5,3.043 15.88,0 27.64,-3.532 35.3,-10.582 7.65,-7.04 11.48,-18.34 11.48,-33.891 V 59.7617 h -14.94" /><path
         id="path64"
         style="fill:#6f7072;fill-opacity:1;fill-rule:nonzero;stroke:none"
         d="m 2609.28,74.2188 c 13.77,0 23.75,3.75 29.95,11.2421 6.19,7.4883 9.29,19.5781 9.29,36.2581 v 4.25 c 0,18.871 -3.14,32.332 -9.42,40.402 -6.27,8.051 -16.29,12.078 -30.06,12.078 -11.83,0 -20.87,-4.59 -27.15,-13.789 -6.28,-9.191 -9.42,-22.172 -9.42,-38.93 0,-17.011 3.12,-29.8394 9.36,-38.5191 6.23,-8.6601 15.38,-12.9921 27.45,-12.9921 z m 40.33,3.4023 h -1.09 c -9.32,-13.5195 -23.24,-20.2891 -41.79,-20.2891 -17.41,0 -30.96,5.9571 -40.63,17.8594 -9.68,11.9102 -14.51,28.8286 -14.51,50.7776 0,21.953 4.85,39 14.57,51.152 9.71,12.141 23.24,18.211 40.57,18.211 18.06,0 31.91,-6.551 41.54,-19.684 h 1.59 l -0.85,9.602 -0.49,9.359 v 54.18 h 20.16 V 59.7617 h -16.39 l -2.68,17.8594" /><path
         id="path66"
         style="fill:#6f7072;fill-opacity:1;fill-rule:nonzero;stroke:none"
         d="m 2787.1,178.449 c -10.69,0 -19.22,-3.48 -25.56,-10.437 -6.37,-6.981 -10.11,-16.621 -11.24,-28.922 h 69.61 c 0,12.711 -2.85,22.449 -8.51,29.219 -5.67,6.761 -13.77,10.14 -24.3,10.14 z m 5.47,-121.117 c -19.68,0 -35.21,6 -46.59,17.9766 -11.38,11.9805 -17.06,28.6324 -17.06,49.9294 0,21.461 5.28,38.512 15.85,51.141 10.57,12.641 24.75,18.953 42.58,18.953 16.68,0 29.88,-5.48 39.6,-16.461 9.71,-10.973 14.58,-25.441 14.58,-43.422 v -12.758 h -91.72 c 0.41,-15.632 4.35,-27.4996 11.84,-35.5894 7.49,-8.1016 18.04,-12.1524 31.64,-12.1524 14.34,0 28.51,3 42.52,8.9805 V 65.9609 c -7.13,-3.082 -13.86,-5.289 -20.22,-6.6289 -6.36,-1.3203 -14.03,-2 -23.02,-2" /><path
         id="path68"
         style="fill:#6f7072;fill-opacity:1;fill-rule:nonzero;stroke:none"
         d="m 3033.3,73.9688 c 3.57,0 7.01,0.2695 10.33,0.7929 3.32,0.5274 5.95,1.0781 7.9,1.6367 V 60.9688 c -2.19,-1.0391 -5.41,-1.9102 -9.66,-2.5977 -4.25,-0.6914 -8.08,-1.0391 -11.49,-1.0391 -25.75,0 -38.62,13.5664 -38.62,40.6993 V 177.23 h -19.07 v 9.719 l 19.07,8.383 8.5,28.43 h 11.67 V 192.91 h 38.62 v -15.68 h -38.62 V 98.8789 c 0,-8.0078 1.89,-14.168 5.7,-18.457 3.81,-4.3008 9.03,-6.4531 15.67,-6.4531" /><path
         id="path70"
         style="fill:#6f7072;fill-opacity:1;fill-rule:nonzero;stroke:none"
         d="m 3116.49,126.449 c 0,-17 3.4,-29.9607 10.2,-38.8592 6.81,-8.9179 16.81,-13.371 30.01,-13.371 13.2,0 23.22,4.4296 30.06,13.3007 6.85,8.8594 10.26,21.8395 10.26,38.9295 0,16.93 -3.41,29.789 -10.26,38.582 -6.84,8.789 -16.94,13.168 -30.3,13.168 -13.2,0 -23.17,-4.328 -29.88,-13 -6.73,-8.66 -10.09,-21.578 -10.09,-38.75 z m 101.43,0 c 0,-21.699 -5.47,-38.6482 -16.39,-50.8396 -10.94,-12.1797 -26.05,-18.2774 -45.32,-18.2774 -11.9,0 -22.47,2.7891 -31.7,8.3868 -9.23,5.5898 -16.36,13.6015 -21.38,24.0507 -5.03,10.4415 -7.53,22.6715 -7.53,36.6795 0,21.711 5.42,38.621 16.27,50.731 10.86,12.101 25.92,18.152 45.19,18.152 18.63,0 33.43,-6.191 44.41,-18.582 10.96,-12.398 16.45,-29.148 16.45,-50.301" /><path
         id="path72"
         style="fill:#6f7072;fill-opacity:1;fill-rule:nonzero;stroke:none"
         d="m 3449.3,59.7617 -60.25,157.4493 h -0.98 c 1.13,-12.492 1.7,-27.301 1.7,-44.473 V 59.7617 H 3370.7 V 237.359 h 31.1 l 56.24,-146.4879 h 0.98 l 56.73,146.4879 h 30.85 V 59.7617 h -20.65 V 174.199 c 0,13.11 0.57,27.371 1.7,42.762 h -0.97 L 3465.94,59.7617 h -16.64" /><path
         id="path74"
         style="fill:#6f7072;fill-opacity:1;fill-rule:nonzero;stroke:none"
         d="m 3667.94,178.449 c -10.69,0 -19.22,-3.48 -25.56,-10.437 -6.37,-6.981 -10.11,-16.621 -11.24,-28.922 h 69.61 c 0,12.711 -2.85,22.449 -8.51,29.219 -5.67,6.761 -13.77,10.14 -24.3,10.14 z m 5.47,-121.117 c -19.68,0 -35.21,6 -46.59,17.9766 -11.38,11.9805 -17.06,28.6324 -17.06,49.9294 0,21.461 5.28,38.512 15.85,51.141 10.56,12.641 24.75,18.953 42.58,18.953 16.68,0 29.88,-5.48 39.6,-16.461 9.71,-10.973 14.58,-25.441 14.58,-43.422 v -12.758 h -91.72 c 0.41,-15.632 4.35,-27.4996 11.84,-35.5894 7.49,-8.1016 18.04,-12.1524 31.64,-12.1524 14.34,0 28.51,3 42.52,8.9805 V 65.9609 c -7.13,-3.082 -13.86,-5.289 -20.22,-6.6289 -6.36,-1.3203 -14.03,-2 -23.02,-2" /><path
         id="path76"
         style="fill:#6f7072;fill-opacity:1;fill-rule:nonzero;stroke:none"
         d="m 3817.95,73.9688 c 12.55,0 22.41,3.4531 29.58,10.332 7.17,6.8906 10.75,16.5312 10.75,28.9102 v 12.027 l -20.16,-0.847 c -16.04,-0.559 -27.6,-3.051 -34.69,-7.469 -7.09,-4.41 -10.62,-11.281 -10.62,-20.59 0,-7.2929 2.2,-12.8437 6.62,-16.6406 4.41,-3.8125 10.58,-5.7226 18.52,-5.7226 z m 45.56,-14.2071 -4.01,18.9571 h -0.97 c -6.65,-8.3477 -13.27,-14 -19.86,-16.9493 -6.61,-2.9492 -14.85,-4.4375 -24.73,-4.4375 -13.2,0 -23.55,3.4063 -31.04,10.2071 -7.49,6.8007 -11.24,16.4804 -11.24,29.0312 0,26.8907 21.51,40.9807 64.51,42.2817 l 22.59,0.73 v 8.258 c 0,10.441 -2.24,18.148 -6.74,23.129 -4.49,4.992 -11.68,7.48 -21.56,7.48 -11.09,0 -23.65,-3.398 -37.65,-10.211 l -6.21,15.434 c 6.57,3.558 13.75,6.359 21.57,8.387 7.82,2.023 15.65,3.043 23.5,3.043 15.88,0 27.64,-3.532 35.3,-10.582 7.65,-7.04 11.48,-18.34 11.48,-33.891 V 59.7617 h -14.94" /><path
         id="path78"
         style="fill:#6f7072;fill-opacity:1;fill-rule:nonzero;stroke:none"
         d="m 4030.76,96.082 c 0,-12.3828 -4.62,-21.9414 -13.85,-28.6601 -9.23,-6.7305 -22.19,-10.0899 -38.88,-10.0899 -17.66,0 -31.42,2.7891 -41.3,8.3868 v 18.7031 c 6.4,-3.2422 13.26,-5.793 20.59,-7.6406 7.33,-1.8711 14.39,-2.8125 21.2,-2.8125 10.53,0 18.62,1.6796 24.3,5.0507 5.66,3.3594 8.5,8.4805 8.5,15.3594 0,5.1914 -2.24,9.6211 -6.75,13.3011 -4.49,3.691 -13.26,8.039 -26.3,13.07 -12.39,4.609 -21.19,8.641 -26.41,12.082 -5.23,3.449 -9.11,7.348 -11.67,11.727 -2.55,4.371 -3.82,9.589 -3.82,15.66 0,10.863 4.4,19.429 13.23,25.703 8.83,6.277 20.94,9.41 36.33,9.41 14.34,0 28.34,-2.91 42.03,-8.742 l -7.17,-16.41 c -13.36,5.511 -25.46,8.269 -36.31,8.269 -9.56,0 -16.77,-1.5 -21.64,-4.5 -4.85,-2.988 -7.28,-7.129 -7.28,-12.39 0,-3.559 0.91,-6.598 2.73,-9.11 1.82,-2.508 4.76,-4.898 8.81,-7.168 4.05,-2.261 11.82,-5.551 23.32,-9.832 15.79,-5.75 26.47,-11.551 32.01,-17.379 5.55,-5.832 8.33,-13.16 8.33,-21.988" /><path
         id="path80"
         style="fill:#6f7072;fill-opacity:1;fill-rule:nonzero;stroke:none"
         d="m 4107.39,192.91 v -86.379 c 0,-10.8513 2.47,-18.9412 7.41,-24.3005 4.93,-5.3399 12.66,-8.0117 23.2,-8.0117 13.93,0 24.11,3.8125 30.55,11.4218 6.43,7.6094 9.66,20.0394 9.66,37.3004 v 69.969 h 20.16 V 59.7617 h -16.64 l -2.92,17.8594 h -1.09 c -4.13,-6.5625 -9.86,-11.582 -17.19,-15.0625 -7.32,-3.4766 -15.69,-5.2266 -25.09,-5.2266 -16.19,0 -28.32,3.8477 -36.37,11.5391 -8.06,7.6992 -12.09,20 -12.09,36.9379 v 87.101 h 20.41" /><path
         id="path82"
         style="fill:#6f7072;fill-opacity:1;fill-rule:nonzero;stroke:none"
         d="m 4326.74,195.332 c 5.91,0 11.22,-0.48 15.92,-1.461 l -2.79,-18.711 c -5.52,1.219 -10.37,1.828 -14.58,1.828 -10.78,0 -19.98,-4.367 -27.64,-13.117 -7.66,-8.75 -11.48,-19.633 -11.48,-32.68 V 59.7617 H 4266 V 192.91 h 16.65 l 2.3,-24.672 h 0.97 c 4.94,8.672 10.9,15.352 17.86,20.051 6.97,4.699 14.62,7.043 22.96,7.043" /><path
         id="path84"
         style="fill:#6f7072;fill-opacity:1;fill-rule:nonzero;stroke:none"
         d="m 4443.22,178.449 c -10.7,0 -19.22,-3.48 -25.57,-10.437 -6.37,-6.981 -10.11,-16.621 -11.24,-28.922 h 69.61 c 0,12.711 -2.84,22.449 -8.51,29.219 -5.67,6.761 -13.77,10.14 -24.29,10.14 z m 5.46,-121.117 c -19.67,0 -35.21,6 -46.59,17.9766 -11.37,11.9805 -17.06,28.6324 -17.06,49.9294 0,21.461 5.29,38.512 15.85,51.141 10.57,12.641 24.76,18.953 42.58,18.953 16.68,0 29.88,-5.48 39.6,-16.461 9.72,-10.973 14.58,-25.441 14.58,-43.422 v -12.758 h -91.72 c 0.41,-15.632 4.36,-27.4996 11.85,-35.5894 7.49,-8.1016 18.03,-12.1524 31.64,-12.1524 14.33,0 28.5,3 42.52,8.9805 V 65.9609 c -7.13,-3.082 -13.87,-5.289 -20.23,-6.6289 -6.36,-1.3203 -14.03,-2 -23.02,-2" /></g></g></svg>
