<?xml version="1.0" encoding="utf-8"?>
<!-- Generator: Adobe Illustrator 21.1.0, SVG Export Plug-In . SVG Version: 6.00 Build 0)  -->
<svg version="1.1" id="Layer_1" xmlns="http://www.w3.org/2000/svg" xmlns:xlink="http://www.w3.org/1999/xlink" x="0px" y="0px"
	 viewBox="0 0 612 201.1" style="enable-background:new 0 0 612 201.1;" preserveAspectRatio="xMinYMin meet">
<style type="text/css">
	.st0{fill:#058CBD;}
	.st1{fill:#FFFFFF;}
	.st2{fill:#1B3665;}
</style>
<polygon class="st0" points="338.9,19.8 338.9,149.8 225.8,149.8 192.1,124.6 186.3,120.4 186.6,127.5 187.6,149.8 6,149.8 6,19.8
	"/>
<g>
	<path class="st1" d="M86.5,42.3L64.6,96.8L42.8,42.3H22.1L56.5,128h16.2l34.4-85.6H86.5z"/>
	<path class="st1" d="M132.3,38.3c-2.1-2.1-4.6-3.1-7.7-3.1c-3,0-5.6,1-7.7,3.1s-3.1,4.6-3.1,7.7c0,3,1,5.6,3.1,7.7
		c2.1,2.1,4.6,3.1,7.7,3.1c3,0,5.6-1,7.7-3.1c2.1-2.1,3.1-4.6,3.1-7.7C135.5,43,134.4,40.4,132.3,38.3z M115.5,62V128h18.4V62H115.5
		z"/>
	<path class="st1" d="M189.4,60.9c-3.7,0.1-7.3,1.1-10.8,3c-3.5,1.9-6.5,4.2-8.9,6.9V62h-18.4V128h18.4V99.4c0-6.4,1.3-11.5,4-15.4
		c2.7-3.9,6.8-5.8,12.2-5.8h3.6L189.4,60.9z"/>
	<path class="st1" d="M238.8,108.2c-2.4,3.1-5.3,4.6-8.7,4.6c-1.8,0-3.4-0.7-4.7-2.1c-1.3-1.4-2-3.4-2-5.9V75.3h15.9V62h-15.9V42.3
		H205V62h-7.7v13.2h7.7v30.4c0,7.2,2.2,12.9,6.6,17c4.4,4.2,9.7,6.3,16,6.3c6.3,0,12.3-2.6,18.1-7.8L238.8,108.2z"/>
	<path class="st1" d="M298,62v35.5c0,5.1-1.4,8.9-4,11.6c-2.7,2.7-5.9,4-9.6,4c-7.4,0-11.1-5.1-11.1-15.2V62h-18.5V102
		c0,8.9,2.4,15.6,7.3,20.1c4.9,4.5,11,6.8,18.2,6.8s13.1-3.2,17.7-9.7v8.7h18.5V62H298z"/>
</g>
<g>
	<path class="st2" d="M381.4,110.9V42.3h-19.1V128h55.6v-17H381.4z"/>
	<path class="st2" d="M478.4,66.9c-5.1-4-11.6-6-19.6-6c-11.1,0-21,3.2-29.6,9.4l8.2,11.9c2.5-1.9,5.5-3.5,9-4.7
		c3.5-1.3,6.9-1.9,10.1-1.9c7.4,0,11.2,3.5,11.2,10.5v0.4h-13.7c-8.5,0-15.2,1.7-20.1,5c-4.9,3.4-7.3,8.4-7.3,15.1
		c0,6.7,2.4,12.1,7.1,16.2c4.7,4,10.6,6.1,17.6,6.1c7,0,12.8-3,17.6-8.9v8H486v-42C486,77.3,483.5,70.9,478.4,66.9z M467.5,102.8
		c0,3.3-1.2,6-3.7,8c-2.5,2-5.4,3-8.6,3c-3.3,0-5.8-0.6-7.5-1.9c-1.8-1.3-2.6-3.1-2.6-5.5c0-4.6,3.7-6.9,11-6.9h11.5V102.8z"/>
	<path class="st2" d="M579.7,62l-12.9,39.8L554,62h-17.8l-12.9,39.8L510.5,62h-19l22.4,65.9h19l12.2-35.9l12.1,35.9h19.1L598.8,62
		H579.7z"/>
</g>
<g>
	<path class="st2" d="M601.3,121.1c-1.5-1.5-3.2-2.2-5.3-2.2c-2.1,0-3.8,0.7-5.3,2.2c-1.5,1.5-2.2,3.2-2.2,5.3
		c0,2.1,0.7,3.8,2.2,5.3c1.5,1.5,3.2,2.2,5.3,2.2c2.1,0,3.9-0.7,5.3-2.2c1.5-1.5,2.2-3.2,2.2-5.3
		C603.5,124.3,602.7,122.6,601.3,121.1z M600.3,130.5l-2.1-2.9c1.1-0.5,1.7-1.3,1.7-2.6c0-1-0.3-1.7-0.8-2.2
		c-0.6-0.4-1.5-0.7-2.8-0.7h-3.3v8.4h2.3V128h0.9l1.8,2.6L600.3,130.5c-1.2,1.2-2.6,1.9-4.3,1.9c-1.7,0-3.1-0.6-4.2-1.8
		c-1.2-1.2-1.7-2.6-1.7-4.2c0-1.6,0.6-3,1.8-4.2c1.2-1.2,2.6-1.8,4.2-1.8c1.6,0,3,0.6,4.2,1.7c1.2,1.2,1.8,2.6,1.8,4.2
		S601.4,129.4,600.3,130.5z M597.6,125c0,0.4-0.1,0.7-0.3,0.8c-0.2,0.2-0.6,0.3-1.1,0.3h-1.1V124h1.1c0.5,0,0.8,0.1,1,0.2
		C597.5,124.4,597.6,124.6,597.6,125z"/>
</g>
<g>
	<polygon class="st2" points="217.2,167.3 228.5,188.3 219.5,193.2 208.2,172.2 207.4,170.7 206.6,169.2 192.1,177 191,149.8
		190,127.4 220.2,149.8 229.5,156.8 215.6,164.3 216.4,165.8 	"/>
</g>
</svg>
